# xmcd
#
# Track frame offsets:
#	150
#	17635
#	36812
#	56270
#	74560
#	90945
#	108907
#	128862
#	154837
#	177982
#	197302
#	222127
#
# Disc length: 3205 seconds
#
# Revision: 1
# Processed by: cddbd v1.5PL3 Copyright (c) Steve Scherf et al.
# Submitted via: CDex 1.50Beta5
#
DISCID=960c830c
DTITLE=The Nolans and Friends - Christmas Pops In Japan
DYEAR=1900
DGENRE=
TTITLE0=Christmas Eve
TTITLE1=Sentimental Christmas
TTITLE2=Christmas Calendar
TTITLE3=Koibito Ga Santa Claus
TTITLE4=Frozen Winter Misery
TTITLE5=It's Hard To Say Merry Christmas
TTITLE6=Silent Eve
TTITLE7=Miserable Christmas
TTITLE8=Merry X'mas In Summer
TTITLE9=Don't Say Goodbye
TTITLE10=Lonely Christmas Eve
TTITLE11=Santa To Tenshi Ga Warau Yoru
EXTD=
EXTT0=
EXTT1=
EXTT2=
EXTT3=
EXTT4=
EXTT5=
EXTT6=
EXTT7=
EXTT8=
EXTT9=
EXTT10=
EXTT11=
PLAYORDER=
